<svg width="141" height="48" viewBox="0 0 141 48" fill="none" xmlns="http://www.w3.org/2000/svg">
<rect width="141" height="48" rx="8" fill="#36B37E"/>
<path d="M19.3059 21.0898H21.2075C21.1702 19.2468 19.5989 17.9418 17.2764 17.9418C14.9859 17.9418 13.2654 19.2308 13.2707 21.1591C13.2707 22.7251 14.384 23.6254 16.1791 24.0888L17.4202 24.4084C18.5974 24.7067 19.3751 25.0742 19.3805 25.9212C19.3751 26.8533 18.4909 27.4766 17.2018 27.4766C15.966 27.4766 15.0072 26.9226 14.9273 25.7773H12.9831C13.063 27.9453 14.677 29.1651 17.2178 29.1651C19.8332 29.1651 21.3513 27.8601 21.3567 25.9371C21.3513 24.0462 19.7906 23.1832 18.15 22.7944L17.1273 22.5387C16.2324 22.3256 15.2629 21.9474 15.2736 21.0366C15.2789 20.2163 16.014 19.6143 17.2498 19.6143C18.427 19.6143 19.2047 20.163 19.3059 21.0898ZM26.6554 29.1598C28.5624 29.1598 29.8727 28.2276 30.2136 26.8054L28.4132 26.603C28.1522 27.2955 27.513 27.6577 26.682 27.6577C25.4356 27.6577 24.61 26.8374 24.594 25.4364H30.2935V24.8452C30.2935 21.9741 28.5677 20.7116 26.5542 20.7116C24.2104 20.7116 22.6817 22.4322 22.6817 24.957C22.6817 27.5245 24.1891 29.1598 26.6554 29.1598ZM24.5993 24.1367C24.6579 23.0927 25.4303 22.2138 26.5808 22.2138C27.6888 22.2138 28.4345 23.0234 28.4452 24.1367H24.5993ZM35.547 29.1598C37.454 29.1598 38.7643 28.2276 39.1052 26.8054L37.3048 26.603C37.0438 27.2955 36.4046 27.6577 35.5736 27.6577C34.3272 27.6577 33.5016 26.8374 33.4856 25.4364H39.1851V24.8452C39.1851 21.9741 37.4593 20.7116 35.4458 20.7116C33.1021 20.7116 31.5733 22.4322 31.5733 24.957C31.5733 27.5245 33.0807 29.1598 35.547 29.1598ZM33.4909 24.1367C33.5495 23.0927 34.3219 22.2138 35.4724 22.2138C36.5804 22.2138 37.3261 23.0234 37.3368 24.1367H33.4909ZM50.551 21.0898H52.4526C52.4154 19.2468 50.844 17.9418 48.5215 17.9418C46.231 17.9418 44.5105 19.2308 44.5158 21.1591C44.5158 22.7251 45.6291 23.6254 47.4242 24.0888L48.6653 24.4084C49.8426 24.7067 50.6203 25.0742 50.6256 25.9212C50.6203 26.8533 49.736 27.4766 48.447 27.4766C47.2112 27.4766 46.2524 26.9226 46.1725 25.7773H44.2282C44.3081 27.9453 45.9221 29.1651 48.4629 29.1651C51.0783 29.1651 52.5965 27.8601 52.6018 25.9371C52.5965 24.0462 51.0357 23.1832 49.3951 22.7944L48.3724 22.5387C47.4775 22.3256 46.508 21.9474 46.5187 21.0366C46.524 20.2163 47.2591 19.6143 48.4949 19.6143C49.6721 19.6143 50.4498 20.163 50.551 21.0898ZM57.8473 29.1598C60.2443 29.1598 61.7677 27.4712 61.7677 24.9411C61.7677 22.4055 60.2443 20.7116 57.8473 20.7116C55.4502 20.7116 53.9268 22.4055 53.9268 24.9411C53.9268 27.4712 55.4502 29.1598 57.8473 29.1598ZM57.8579 27.6151C56.5316 27.6151 55.8817 26.4325 55.8817 24.9357C55.8817 23.4389 56.5316 22.2404 57.8579 22.2404C59.163 22.2404 59.8128 23.4389 59.8128 24.9357C59.8128 26.4325 59.163 27.6151 57.8579 27.6151ZM68.6192 25.5589C68.6192 26.8054 67.7296 27.4233 66.8774 27.4233C65.9505 27.4233 65.3326 26.7681 65.3326 25.7294V20.8182H63.4043V26.0277C63.4043 27.9933 64.5229 29.1065 66.1316 29.1065C67.3568 29.1065 68.2197 28.462 68.5926 27.5458H68.6778V29H70.5475V20.8182H68.6192V25.5589ZM72.5303 29H74.4586V24.19C74.4586 23.1513 75.2416 22.4162 76.3016 22.4162C76.6266 22.4162 77.0314 22.4748 77.1965 22.5281V20.7543C77.0207 20.7223 76.7171 20.701 76.504 20.701C75.5665 20.701 74.7835 21.2337 74.4852 22.1818H74.4V20.8182H72.5303V29ZM81.7096 29.1598C83.7657 29.1598 85.076 27.94 85.2145 26.2035H83.3715C83.2064 27.0824 82.5725 27.5884 81.7255 27.5884C80.5217 27.5884 79.744 26.5817 79.744 24.9091C79.744 23.2578 80.5377 22.267 81.7255 22.267C82.6524 22.267 83.2223 22.8636 83.3715 23.652H85.2145C85.0814 21.8782 83.6964 20.7116 81.6989 20.7116C79.3019 20.7116 77.7891 22.4428 77.7891 24.9411C77.7891 27.418 79.2646 29.1598 81.7096 29.1598ZM90.4201 29.1598C92.327 29.1598 93.6374 28.2276 93.9783 26.8054L92.1779 26.603C91.9169 27.2955 91.2777 27.6577 90.4467 27.6577C89.2002 27.6577 88.3746 26.8374 88.3586 25.4364H94.0582V24.8452C94.0582 21.9741 92.3323 20.7116 90.3188 20.7116C87.9751 20.7116 86.4463 22.4322 86.4463 24.957C86.4463 27.5245 87.9538 29.1598 90.4201 29.1598ZM88.3639 24.1367C88.4225 23.0927 89.1949 22.2138 90.3455 22.2138C91.4534 22.2138 92.1992 23.0234 92.2098 24.1367H88.3639Z" fill="white"/>
<g clip-path="url(#clip0_34_3027)">
<g clip-path="url(#clip1_34_3027)">
<path d="M125.999 21.4611C125.999 20.3212 125.633 19.2504 124.934 18.3178C125.201 17.4197 125.267 16.2798 125.201 14.9672C125.167 14.4145 124.735 14 124.202 14C123.903 14 121.374 14.0345 119.91 15.3817C118.646 15.1399 117.315 15.1399 116.018 15.3817C114.587 14.0345 112.058 14 111.726 14C111.193 14 110.761 14.4145 110.727 14.9672C110.628 16.2798 110.727 17.4197 110.994 18.3178C110.295 19.285 109.929 20.3558 109.929 21.4611C109.929 23.8791 111.726 26.0553 114.454 27.0915C114.354 27.2988 114.287 27.5406 114.221 27.7824C111.326 27.4715 109.962 24.7427 109.896 24.639C109.663 24.1209 109.064 23.9136 108.565 24.19C108.066 24.4318 107.866 25.0535 108.132 25.5717C108.199 25.7444 110.029 29.4404 114.055 29.8549V32.9637C114.055 33.5509 114.487 34 115.053 34H120.875C121.441 34 121.873 33.5509 121.873 32.9637V28.8532C121.873 28.2314 121.74 27.6442 121.507 27.1261C124.202 26.0553 125.999 23.9136 125.999 21.4611Z" fill="white"/>
</g>
</g>
<defs>
<clipPath id="clip0_34_3027">
<rect width="18" height="20" fill="white" transform="translate(108 14)"/>
</clipPath>
<clipPath id="clip1_34_3027">
<rect width="18" height="20" fill="white" transform="translate(108 14)"/>
</clipPath>
</defs>
</svg>
