<svg width="115" height="48" viewBox="0 0 115 48" fill="none" xmlns="http://www.w3.org/2000/svg">
<g clip-path="url(#clip0_34_3020)">
<rect width="115" height="48" rx="8" fill="#36B37E"/>
<path d="M19.343 21.0898H21.2446C21.2073 19.2468 19.636 17.9418 17.3135 17.9418C15.023 17.9418 13.3025 19.2308 13.3078 21.1591C13.3078 22.7251 14.4211 23.6254 16.2162 24.0888L17.4573 24.4084C18.6345 24.7067 19.4122 25.0742 19.4176 25.9212C19.4122 26.8533 18.528 27.4766 17.2389 27.4766C16.0032 27.4766 15.0443 26.9226 14.9644 25.7773H13.0202C13.1001 27.9453 14.7141 29.1651 17.2549 29.1651C19.8703 29.1651 21.3884 27.8601 21.3938 25.9371C21.3884 24.0462 19.8277 23.1832 18.1871 22.7944L17.1644 22.5387C16.2695 22.3256 15.3 21.9474 15.3107 21.0366C15.316 20.2163 16.0511 19.6143 17.2869 19.6143C18.4641 19.6143 19.2418 20.163 19.343 21.0898ZM26.6925 29.1598C28.5995 29.1598 29.9098 28.2276 30.2508 26.8054L28.4503 26.603C28.1893 27.2955 27.5501 27.6577 26.7191 27.6577C25.4727 27.6577 24.6471 26.8374 24.6311 25.4364H30.3307V24.8452C30.3307 21.9741 28.6048 20.7116 26.5913 20.7116C24.2476 20.7116 22.7188 22.4322 22.7188 24.957C22.7188 27.5245 24.2263 29.1598 26.6925 29.1598ZM24.6364 24.1367C24.695 23.0927 25.4674 22.2138 26.6179 22.2138C27.7259 22.2138 28.4716 23.0234 28.4823 24.1367H24.6364ZM35.5841 29.1598C37.4911 29.1598 38.8014 28.2276 39.1424 26.8054L37.3419 26.603C37.0809 27.2955 36.4417 27.6577 35.6108 27.6577C34.3643 27.6577 33.5387 26.8374 33.5227 25.4364H39.2223V24.8452C39.2223 21.9741 37.4964 20.7116 35.4829 20.7116C33.1392 20.7116 31.6104 22.4322 31.6104 24.957C31.6104 27.5245 33.1179 29.1598 35.5841 29.1598ZM33.528 24.1367C33.5866 23.0927 34.359 22.2138 35.5095 22.2138C36.6175 22.2138 37.3632 23.0234 37.3739 24.1367H33.528ZM46.5025 18.0909H44.5743V29H46.5025V18.0909ZM48.4854 29H50.4137V20.8182H48.4854V29ZM49.4549 19.657C50.0674 19.657 50.5681 19.1882 50.5681 18.6129C50.5681 18.0323 50.0674 17.5636 49.4549 17.5636C48.837 17.5636 48.3362 18.0323 48.3362 18.6129C48.3362 19.1882 48.837 19.657 49.4549 19.657ZM59.7048 20.8182H57.654L55.7683 26.896H55.6831L53.8028 20.8182H51.7467L54.6604 29H56.7911L59.7048 20.8182ZM64.3829 29.1598C66.2899 29.1598 67.6003 28.2276 67.9412 26.8054L66.1408 26.603C65.8797 27.2955 65.2405 27.6577 64.4096 27.6577C63.1631 27.6577 62.3375 26.8374 62.3215 25.4364H68.0211V24.8452C68.0211 21.9741 66.2952 20.7116 64.2817 20.7116C61.938 20.7116 60.4092 22.4322 60.4092 24.957C60.4092 27.5245 61.9167 29.1598 64.3829 29.1598ZM62.3268 24.1367C62.3854 23.0927 63.1578 22.2138 64.3084 22.2138C65.4163 22.2138 66.1621 23.0234 66.1727 24.1367H62.3268Z" fill="white"/>
<path fill-rule="evenodd" clip-rule="evenodd" d="M84 24C84 20.134 87.134 17 91 17C91.5523 17 92 16.5523 92 16C92 15.4477 91.5523 15 91 15C86.0294 15 82 19.0294 82 24C82 28.9706 86.0294 33 91 33C95.9706 33 100 28.9706 100 24C100 23.4477 99.5523 23 99 23C98.4477 23 98 23.4477 98 24C98 27.866 94.866 31 91 31C87.134 31 84 27.866 84 24ZM95 15C94.4477 15 94 15.4477 94 16C94 16.5523 94.4477 17 95 17H96.5858L90.2929 23.2929C89.9024 23.6834 89.9024 24.3166 90.2929 24.7071C90.6834 25.0976 91.3166 25.0976 91.7071 24.7071L98 18.4142V20C98 20.5523 98.4477 21 99 21C99.5523 21 100 20.5523 100 20V16C100 15.4477 99.5523 15 99 15H95Z" fill="white"/>
</g>
<defs>
<clipPath id="clip0_34_3020">
<rect width="115" height="48" fill="white"/>
</clipPath>
</defs>
</svg>
